<svg width="165" height="49" viewBox="0 0 165 49" fill="none" xmlns="http://www.w3.org/2000/svg">
<path d="M29.179 15.0275V34.2687C29.179 35.3303 28.2436 36.1928 27.0922 36.1928C25.9409 36.1928 25.0055 35.3303 25.0055 34.2687V28.0319C25.0055 26.9703 24.07 26.1078 22.9187 26.1078H18.7451C17.5938 26.1078 16.6583 26.9703 16.6583 28.0319V28.8281C16.6583 29.8897 15.7229 30.7522 14.5715 30.7522C13.4202 30.7522 12.4847 29.8897 12.4847 28.8281V19.7051C12.4847 18.6436 13.4202 17.781 14.5715 17.781C15.7229 17.781 16.6583 18.6436 16.6583 19.7051V20.3686C16.6583 21.4302 17.5938 22.2927 18.7451 22.2927H22.9547C24.106 22.2927 25.0414 21.4302 25.0414 20.3686V15.0275C25.0414 13.966 25.9769 13.1034 27.1282 13.1034C28.2436 13.1366 29.179 13.966 29.179 15.0275Z" fill="white"/>
<path d="M25.5092 40.141C24.8975 40.141 24.2859 40.4064 23.9261 40.8709C21.8753 43.3258 18.6012 44.9181 14.9673 44.9181C8.81487 44.9181 3.81378 40.4396 3.81378 34.9658V13.8337C3.81378 8.35995 8.85085 3.8814 14.9673 3.8814C18.7091 3.8814 22.0192 5.54013 24.07 8.06138C24.4658 8.52582 25.0414 8.82439 25.6891 8.82439H25.9049C27.488 8.82439 28.4594 7.16567 27.56 5.97139C24.8975 2.38856 20.3642 0 15.2191 0H14.7874C6.65613 0 0 5.93822 0 13.1702V35.3307C0 42.5628 6.65613 48.501 14.7874 48.501H15.2191C20.1123 48.501 24.4298 46.3778 27.1282 43.0936C28.0637 41.8993 27.1642 40.141 25.5092 40.141Z" fill="white"/>
<path d="M38.8214 16.156H44.2902C45.9812 16.156 47.5643 16.7199 49.0035 17.8147C49.7231 18.445 50.1908 18.9758 50.4067 19.3407C51.1262 20.4687 51.522 21.6298 51.522 22.824V34.5346C51.522 35.0654 51.2342 35.5298 50.6585 35.9279C50.3347 36.0938 50.0109 36.1933 49.6871 36.1933C48.8955 36.1933 48.3199 35.8616 47.9601 35.1649C47.7802 34.7005 47.4564 34.4683 46.9886 34.4683C46.7728 34.4683 46.377 34.6673 45.7294 35.0322C45.1897 35.2976 44.5421 35.563 43.8225 35.7621C42.6712 36.0606 41.6637 36.2265 40.8002 36.2265H40.5124C38.6055 36.2265 36.9145 35.563 35.4034 34.2029C34.7558 33.5394 34.36 32.9754 34.1441 32.5441C33.6404 31.5489 33.3886 30.5868 33.3886 29.6911V29.4921C33.3886 27.767 34.1081 26.2078 35.5473 24.8145C37.0584 23.5539 38.7135 22.9236 40.4764 22.9236H46.4849C47.0246 22.9236 47.3484 22.7909 47.4923 22.5586C47.6003 22.4259 47.6722 22.2932 47.6722 22.1274V22.061C47.6363 21.6961 47.3844 21.2317 46.8807 20.7009C46.341 20.2364 45.9093 19.9379 45.5495 19.8383C45.1897 19.6725 44.5421 19.5729 43.6426 19.5729H38.8214C38.3177 19.5729 37.8859 19.3739 37.4542 18.9426C37.2023 18.6109 37.0584 18.3123 37.0584 18.0137V17.881C37.0584 17.3171 37.3103 16.8858 37.85 16.5209C38.2098 16.2555 38.4976 16.156 38.8214 16.156ZM37.0584 29.5584C37.0584 30.4542 37.4542 31.2835 38.2817 32.0133C39.0013 32.5441 39.7569 32.8095 40.4405 32.8095H40.8002C41.9876 32.8095 43.2108 32.4778 44.4701 31.7811C45.8733 30.9849 46.8447 29.7907 47.4564 28.2646C47.6003 27.8002 47.6722 27.4353 47.7442 27.1699V27.0704C47.7442 26.7386 47.5283 26.5064 47.1326 26.3073C47.0246 26.3073 46.9527 26.2742 46.9167 26.2742H40.4764C39.6129 26.2742 38.8214 26.6059 38.0299 27.3026C37.3822 27.9992 37.0584 28.7623 37.0584 29.5584Z" fill="white"/>
<path d="M57.3867 8.0271H57.5307C58.3582 8.0271 59.0058 8.42519 59.5095 9.18821C59.6534 9.4536 59.7254 9.75217 59.7254 10.0839V10.283C59.7254 11.0128 59.2936 11.6431 58.4301 12.0744C58.1063 12.2071 57.7825 12.2734 57.4587 12.2734C56.4873 12.2734 55.8037 11.8422 55.3359 10.9465C55.228 10.7142 55.192 10.482 55.192 10.283V10.1171C55.192 9.22138 55.6957 8.59107 56.7031 8.19297C56.955 8.06028 57.1709 8.0271 57.3867 8.0271Z" fill="white"/>
<path d="M57.2788 16.156H57.5666C58.0343 16.156 58.502 16.3882 58.8978 16.8195C59.1137 17.1512 59.2216 17.4498 59.2216 17.7484V34.5678C59.2216 35.1649 58.8618 35.6625 58.1423 36.0606C57.8544 36.1601 57.6386 36.1933 57.4946 36.1933H57.3147C56.7031 36.1933 56.2354 35.8947 55.8036 35.3308C55.6237 35.0986 55.5518 34.7005 55.5518 34.1697V18.1796C55.5518 17.2839 55.8396 16.7199 56.4153 16.4214C56.7391 16.2555 56.9909 16.156 57.2788 16.156Z" fill="white"/>
<path d="M65.3379 16.156C65.9495 16.156 66.4533 16.4214 66.849 16.919C67.1009 17.2839 67.3887 17.4498 67.7485 17.4498C67.8924 17.4498 68.2522 17.3171 68.7559 17.0517C70.0871 16.4545 71.4903 16.156 72.8935 16.156C75.6999 16.156 78.1105 17.1512 80.0893 19.1748C80.8089 20.0374 81.2766 20.734 81.5285 21.298C82.1042 22.3264 82.392 23.6866 82.392 25.3785V34.236C82.392 35.0322 82.1401 35.563 81.6724 35.8284C81.3486 36.0606 80.9528 36.1933 80.5211 36.1933C80.0533 36.1933 79.6216 35.9943 79.1898 35.6294C78.866 35.3308 78.6861 34.8663 78.6861 34.2029V25.4448C78.6861 24.1842 78.5062 23.2553 78.1465 22.6582C77.4628 21.3312 76.3475 20.4023 74.8004 19.8383C74.1168 19.6393 73.4692 19.5398 72.8935 19.5398C71.2385 19.5398 69.7633 20.1369 68.576 21.3312C67.9284 22.0278 67.4607 22.8572 67.2448 23.8193C67.1728 24.151 67.1009 24.715 67.1009 25.4448V34.2029C67.1009 34.999 66.849 35.5298 66.3813 35.7952C66.0575 36.0274 65.6977 36.1601 65.23 36.1601C64.7622 36.1601 64.3305 35.9611 63.8987 35.5962C63.5749 35.2976 63.395 34.8332 63.395 34.1697V18.1133C63.395 17.4498 63.5749 16.9522 63.9347 16.6536C64.4384 16.3219 64.8702 16.156 65.3379 16.156Z" fill="white"/>
<path d="M88.4726 8.12732C89.1922 8.12732 89.7319 8.45906 90.1637 9.15573C90.2356 9.42112 90.3076 9.68652 90.3076 9.88556V15.1603C90.3076 15.6579 90.4875 15.9565 90.8473 16.0892C90.9912 16.1224 91.0991 16.1555 91.243 16.1555H97.5753C97.6113 16.1555 97.6113 16.1887 97.6113 16.2219V18.5773C97.6113 19.0417 97.4314 19.3403 97.0357 19.473C96.8917 19.5393 96.7838 19.5393 96.6759 19.5393H92.4663C91.6028 19.5393 91.0272 19.7384 90.7393 20.1696C90.4515 20.4019 90.3076 20.8663 90.3076 21.563V30.7523C90.3076 31.5485 90.5235 32.1124 90.9552 32.3446C91.2071 32.6432 91.7108 32.8091 92.4303 32.8091H93.4737C93.5097 32.8091 93.5097 32.8091 93.5097 32.8423V36.1597C93.5097 36.1929 93.5097 36.1929 93.4737 36.1929H91.315C89.588 36.1929 88.2568 35.4962 87.2494 34.1029C86.8536 33.4394 86.6377 32.7096 86.6377 31.8802V9.88556C86.6377 9.08938 87.0695 8.52541 87.933 8.19367C88.1129 8.16049 88.2928 8.12732 88.4726 8.12732Z" fill="white"/>
<path d="M111.463 16.1226C114.485 16.1226 117.112 17.1842 119.415 19.2742C120.242 20.1035 120.638 20.7338 120.638 21.1651C120.638 21.2646 120.638 21.331 120.674 21.3642C120.674 21.7954 120.458 22.1935 120.062 22.5916C119.846 22.7575 116.32 25.0797 109.52 29.5251C109.52 29.5251 108.945 29.9231 107.793 30.6862C107.613 30.8852 107.541 31.0511 107.541 31.2501V31.3828C107.541 31.615 107.685 31.8473 107.973 32.0131C109.125 32.5439 110.204 32.8093 111.211 32.8093H111.643C113.262 32.8093 114.809 32.2454 116.284 31.1174C117.076 30.3876 117.544 29.8236 117.688 29.5251C117.939 29.1601 118.155 28.6957 118.371 28.0654C118.515 27.4351 118.695 26.9706 118.983 26.7384C119.415 26.3735 119.846 26.2076 120.278 26.2076C121.142 26.2076 121.717 26.5725 122.041 27.3355C122.113 27.5014 122.149 27.6673 122.149 27.8663V27.9327C122.149 28.4303 121.861 29.2597 121.357 30.4208C121.07 31.0511 120.566 31.7477 119.882 32.5771C119.163 33.3069 118.551 33.8709 118.011 34.2358C117.076 34.833 116.284 35.2642 115.565 35.4964C114.198 35.9941 112.902 36.2595 111.643 36.2595H111.319C109.125 36.2595 107.002 35.6291 104.987 34.3353C104.015 33.6387 103.224 32.9088 102.576 32.0795C102.109 31.4492 101.749 30.852 101.461 30.3212C100.849 28.8947 100.526 27.5678 100.526 26.274C100.526 23.8854 101.389 21.6959 103.116 19.7054C103.908 18.9092 104.519 18.4116 104.879 18.2126C106.93 16.8193 109.089 16.1226 111.463 16.1226ZM104.267 26.1413C104.267 27.0701 104.375 27.6009 104.627 27.7668C104.807 27.9327 105.023 27.999 105.311 27.999C105.527 27.999 105.922 27.7668 106.498 27.3355C106.57 27.3024 109.412 25.4446 115.061 21.7291C115.277 21.53 115.385 21.331 115.385 21.0988V20.9661C115.385 20.7338 115.241 20.5348 114.953 20.3357C113.802 19.7718 112.722 19.5064 111.715 19.5064H111.283C109.628 19.5064 108.045 20.1035 106.534 21.2978C105.023 22.7243 104.267 24.3167 104.267 26.1413Z" fill="white"/>
<path d="M135.173 16.156C137.44 16.156 139.491 16.7531 141.362 17.9474C141.794 18.3123 142.009 18.7436 142.009 19.2744C142.009 19.8715 141.686 20.336 141.038 20.7009C140.714 20.8336 140.426 20.8999 140.175 20.8999C139.743 20.8999 139.203 20.7009 138.591 20.336C137.548 19.8052 136.361 19.5398 135.101 19.5398H134.958C133.842 19.5398 132.691 19.8383 131.504 20.4355C129.956 21.298 128.877 22.4923 128.301 24.0515C128.05 24.7813 127.906 25.478 127.906 26.2078C127.906 28.0324 128.697 29.658 130.244 31.0845C131.216 31.8475 132.151 32.3451 133.123 32.5773C133.806 32.7432 134.418 32.8427 134.922 32.8427H135.101C136.541 32.8427 137.908 32.4778 139.167 31.7148C139.491 31.5489 139.815 31.4826 140.139 31.4826C140.714 31.4826 141.218 31.748 141.65 32.2456C141.866 32.5441 141.938 32.8759 141.938 33.1745C141.938 33.8711 141.542 34.4351 140.786 34.8C139.059 35.7621 137.152 36.2597 135.066 36.2597C132.727 36.2597 130.532 35.563 128.481 34.1365C128.014 33.8048 127.51 33.3403 126.97 32.7764C126.359 32.1129 125.927 31.5489 125.747 31.184C124.811 29.6248 124.308 27.9992 124.308 26.241C124.308 24.0847 125.027 22.061 126.502 20.2033C126.754 19.8715 127.222 19.4071 127.942 18.7768C128.733 18.1796 129.453 17.682 130.136 17.3834C131.791 16.5209 133.482 16.156 135.173 16.156Z" fill="white"/>
<path d="M147.946 8.12732H148.09C148.737 8.12732 149.241 8.45906 149.673 9.08938C149.781 9.35477 149.853 9.58699 149.853 9.71969V16.3878C149.853 16.7858 150.069 17.0512 150.5 17.2171C150.572 17.2171 150.644 17.2503 150.68 17.2503H150.716C150.932 17.2503 151.364 17.0844 152.048 16.7858C153.235 16.3546 154.386 16.1555 155.538 16.1555C157.912 16.1555 159.999 16.9185 161.87 18.4114C162.733 19.2076 163.273 19.8047 163.489 20.1696C164.137 21.0985 164.568 22.0606 164.784 23.089C164.928 23.6198 165 24.4491 165 25.6102V34.2688C165 35.1976 164.64 35.7948 163.885 36.0934C163.633 36.1929 163.381 36.2261 163.237 36.2261H163.093C162.41 36.2261 161.87 35.8943 161.474 35.1976C161.366 34.9986 161.294 34.6668 161.294 34.2688V24.9799C161.294 23.4871 160.754 22.1933 159.639 21.1317C158.452 20.0701 157.085 19.5393 155.502 19.5393C153.846 19.5393 152.407 20.1365 151.184 21.3639C150.249 22.3591 149.781 23.5534 149.781 24.9467V34.5673C149.781 35.0649 149.529 35.4962 148.989 35.8943C148.666 36.0934 148.342 36.1929 148.018 36.1929H147.874C147.262 36.1929 146.759 35.8943 146.363 35.3303C146.183 35.0981 146.111 34.7 146.111 34.1692V10.1178C146.111 9.1889 146.471 8.59176 147.226 8.29319C147.514 8.19367 147.766 8.12732 147.946 8.12732Z" fill="white"/>
</svg>
