<svg width="6" height="9" viewBox="0 0 6 9" fill="none" xmlns="http://www.w3.org/2000/svg">
<path d="M6 0.749999V8.25C6 8.66379 5.66379 9 5.25 9C4.83621 9 4.5 8.66379 4.5 8.25V5.81897C4.5 5.40517 4.16379 5.06897 3.75 5.06897H2.25C1.83621 5.06897 1.5 5.40517 1.5 5.81897V6.12931C1.5 6.5431 1.16379 6.87931 0.75 6.87931C0.336207 6.87931 0 6.5431 0 6.12931V2.57328C0 2.15948 0.336207 1.82328 0.75 1.82328C1.16379 1.82328 1.5 2.15948 1.5 2.57328V2.8319C1.5 3.24569 1.83621 3.5819 2.25 3.5819H3.76293C4.17672 3.5819 4.51293 3.24569 4.51293 2.8319V0.749999C4.51293 0.336206 4.84914 0 5.26293 0C5.66379 0.012931 6 0.336206 6 0.749999Z" fill="white"/>
</svg>
